Coordinates
version=1
nRows=12
nColumns=24
inDegrees=yes

Units are S.I. units (second, meters, Newtons, ...)
Angles are in degrees.

endheader
time	pelvis_tilt	pelvis_list	pelvis_rotation	pelvis_tx	pelvis_ty	pelvis_tz	hip_flexion_r	hip_adduction_r	hip_rotation_r	knee_angle_r	ankle_angle_r	subtalar_angle_r	mtp_angle_r	hip_flexion_l	hip_adduction_l	hip_rotation_l	knee_angle_l	ankle_angle_l	subtalar_angle_l	mtp_angle_l	lumbar_extension	lumbar_bending	lumbar_rotation
      1.04150000	      7.35164222	     -2.17985839	     -0.95408329	      0.44414784	      1.03014980	      0.34908829	      2.50377284	      4.73498559	     -4.85654303	    -15.60399977	      0.25796404	    -12.76532233	     -4.56140731	      7.15639533	     -7.51195704	    -10.92598751	    -72.84287475	     -0.66498658	    -22.00288438	    -13.25374077	    -20.04217699	      8.11305099	      9.16269626
      1.04566667	      7.58658157	     -1.97091860	     -1.13812477	      0.44897578	      1.03139977	      0.34979987	      1.77940568	      4.54825394	     -4.65929998	    -15.27117861	      0.38010580	    -12.67516869	     -4.55134600	      7.49821305	     -7.25952746	    -11.04477829	    -72.58995713	     -0.51102298	    -21.84611976	    -13.42887139	    -20.26977629	      7.77245757	      9.25170282
      1.04983333	      7.68110231	     -1.76693615	     -1.24191333	      0.45372780	      1.03236469	      0.35033581	      1.22737859	      4.36012548	     -4.55500857	    -14.95961036	      0.40071942	    -12.70212034	     -4.54876899	      8.04007952	     -6.99329966	    -11.05966818	    -72.35140809	     -0.35323230	    -21.70205368	    -13.49429383	    -20.33477261	      7.46348212	      9.29088524
      1.05400000	      7.81038299	     -1.55969953	     -1.37216245	      0.45850168	      1.03337482	      0.35091550	      0.63166347	      4.16511509	     -4.42504671	    -14.63994848	      0.46538093	    -12.66974789	     -4.54443362	      8.51447213	     -6.72817613	    -11.10971402	    -72.04105821	     -0.20618204	    -21.50984233	    -13.56555761	    -20.44148517	      7.13947452	      9.32348575
      1.05816667	      7.96884318	     -1.35743735	     -1.49907994	      0.46325256	      1.03438635	      0.35150072	      0.00260845	      3.97263340	     -4.29868201	    -14.31230610	      0.53490443	    -12.62957941	     -4.53965986	      8.94782188	     -6.47223873	    -11.16584349	    -71.68419970	     -0.07687694	    -21.31412495	    -13.63911922	    -20.57973851	      6.82244134	      9.36268270
      1.06233333	      8.21426843	     -1.16396882	     -1.65551655	      0.46802812	      1.03551937	      0.35214660	     -0.73432618	      3.78490643	     -4.14051907	    -13.96045504	      0.64516023	    -12.53533797	     -4.52944917	      9.24973173	     -6.23471717	    -11.27018687	    -71.24918214	      0.03789341	    -21.14151733	    -13.77361585	    -20.81928292	      6.50393351	      9.42512642
      1.06650000	      8.36644960	     -0.97546707	     -1.76834774	      0.47276028	      1.03645272	      0.35270038	     -1.35570018	      3.60114852	     -4.03241891	    -13.62865223	      0.70317131	    -12.50473010	     -4.52118431	      9.67332596	     -5.99180187	    -11.31423129	    -70.80471010	      0.15600176	    -20.92962422	    -13.89355501	    -20.95327766	      6.20060508	      9.45437493
      1.07066667	      8.48858327	     -0.78762348	     -1.87445260	      0.47747600	      1.03729711	      0.35324539	     -1.93713046	      3.41566916	     -3.93867133	    -13.30932939	      0.76805670	    -12.46007112	     -4.51475443	     10.12529912	     -5.75089024	    -11.35331808	    -70.32479237	      0.26383495	    -20.70777478	    -13.98942766	    -21.05208424	      5.89589309	      9.47147066
      1.07483333	      8.53975552	     -0.61582008	     -1.94880146	      0.48215712	      1.03798024	      0.35370326	     -2.43280348	      3.24736987	     -3.87052768	    -13.00242321	      0.80012888	    -12.45469642	     -4.51334178	     10.66558225	     -5.51913784	    -11.34951153	    -69.82465028	      0.33403270	    -20.46790329	    -14.02169994	    -21.07132147	      5.63878840	      9.48316684
      1.07900000	      8.72974004	     -0.42777404	     -2.07631588	      0.48686333	      1.03887285	      0.35427115	     -3.08761286	      3.04944125	     -3.77345942	    -12.68236166	      0.91617628	    -12.32654769	     -4.50724366	     11.00027430	     -5.28180235	    -11.42441537	    -69.22976149	      0.45102300	    -20.22506783	    -14.10257767	    -21.25060044	      5.33194548	      9.47820972
      1.08316667	      8.76841483	     -0.26658888	     -2.13929474	      0.49151312	      1.03945780	      0.35471971	     -3.56269146	      2.88997683	     -3.72827069	    -12.38413881	      0.94734935	    -12.31710117	     -4.50667389	     11.53528384	     -5.06321488	    -11.41489442	    -68.64899082	      0.51824398	    -19.98032150	    -14.12667433	    -21.25990295	      5.07321889	      9.48917005
      1.08733333	      8.93818447	     -0.08498762	     -2.25363423	      0.49618742	      1.04023690	      0.35524452	     -4.18379466	      2.69226810	     -3.66488695	    -12.08430682	      1.07524642	    -12.15768472	     -4.50330508	     11.87348695	     -4.82923220	    -11.47870661	    -67.97367160	      0.63035902	    -19.73281298	    -14.18408125	    -21.41840905	      4.77795685	      9.47118508
